<svg width="1440" height="320" xmlns="http://www.w3.org/2000/svg">
 <defs>
  <linearGradient spreadMethod="pad" y2="0" x2="1" y1="0" x1="0" id="svg_10">
   <stop offset="0" stop-opacity="0.98828" stop-color="#4700c4"/>
   <stop offset="0.09375" stop-opacity="0.99219" stop-color="#6908d8"/>
   <stop offset="0.38281" stop-opacity="0.96875" stop-color="#880fbc"/>
   <stop offset="0.80859" stop-opacity="0.98047" stop-color="#c906e2"/>
   <stop offset="1" stop-opacity="0.98828" stop-color="#ff0aea"/>
   <stop offset="NaN" stop-opacity="0" stop-color="0"/>
   <stop offset="NaN" stop-opacity="0" stop-color="0"/>
   <stop offset="NaN" stop-opacity="0" stop-color="0"/>
   <stop offset="NaN" stop-opacity="0" stop-color="0"/>
   <stop offset="NaN" stop-opacity="0" stop-color="0"/>
   <stop offset="NaN" stop-opacity="0" stop-color="0"/>
   <stop offset="NaN" stop-opacity="0" stop-color="0"/>
   <stop offset="NaN" stop-opacity="0" stop-color="0"/>
   <stop offset="NaN" stop-opacity="0" stop-color="0"/>
   <stop offset="NaN" stop-opacity="0" stop-color="0"/>
   <stop offset="NaN" stop-opacity="0" stop-color="0"/>
   <stop offset="NaN" stop-opacity="0" stop-color="0"/>
   <stop offset="NaN" stop-opacity="0" stop-color="0"/>
   <stop offset="NaN" stop-opacity="0" stop-color="0"/>
   <stop offset="NaN" stop-opacity="0" stop-color="0"/>
   <stop offset="NaN" stop-opacity="0" stop-color="0"/>
   <stop offset="NaN" stop-opacity="0" stop-color="0"/>
   <stop offset="NaN" stop-opacity="0" stop-color="0"/>
   <stop offset="NaN" stop-opacity="0" stop-color="0"/>
   <stop offset="NaN" stop-opacity="0" stop-color="0"/>
   <stop offset="NaN" stop-opacity="0" stop-color="0"/>
   <stop offset="NaN" stop-opacity="0" stop-color="0"/>
   <stop offset="NaN" stop-opacity="0" stop-color="0"/>
   <stop offset="NaN" stop-opacity="0" stop-color="0"/>
   <stop offset="NaN" stop-opacity="0" stop-color="0"/>
   <stop offset="NaN" stop-opacity="0" stop-color="0"/>
   <stop offset="NaN" stop-opacity="0" stop-color="0"/>
   <stop offset="NaN" stop-opacity="0" stop-color="0"/>
   <stop offset="NaN" stop-opacity="0" stop-color="0"/>
   <stop offset="NaN" stop-opacity="0" stop-color="0"/>
   <stop offset="NaN" stop-opacity="0" stop-color="0"/>
   <stop offset="NaN" stop-opacity="0" stop-color="0"/>
   <stop offset="NaN" stop-opacity="0" stop-color="0"/>
   <stop offset="NaN" stop-opacity="0" stop-color="0"/>
   <stop offset="NaN" stop-opacity="0" stop-color="0"/>
   <stop offset="NaN" stop-opacity="0" stop-color="0"/>
   <stop offset="NaN" stop-opacity="0" stop-color="0"/>
   <stop offset="NaN" stop-opacity="0" stop-color="0"/>
   <stop offset="NaN" stop-opacity="0" stop-color="0"/>
   <stop offset="NaN" stop-opacity="0" stop-color="0"/>
   <stop offset="NaN" stop-opacity="0" stop-color="0"/>
   <stop offset="NaN" stop-opacity="0" stop-color="0"/>
   <stop offset="NaN" stop-opacity="0" stop-color="0"/>
   <stop offset="NaN" stop-opacity="0" stop-color="0"/>
   <stop offset="NaN" stop-opacity="0" stop-color="0"/>
   <stop offset="NaN" stop-opacity="0" stop-color="0"/>
   <stop offset="NaN" stop-opacity="0" stop-color="0"/>
   <stop offset="NaN" stop-opacity="0" stop-color="0"/>
   <stop offset="NaN" stop-opacity="0" stop-color="0"/>
   <stop offset="NaN" stop-opacity="0" stop-color="0"/>
   <stop offset="NaN" stop-opacity="0" stop-color="0"/>
   <stop offset="NaN" stop-opacity="0" stop-color="0"/>
  </linearGradient>
 </defs>
 <g>
  <title>background</title>
  <rect fill="none" id="canvas_background" height="602" width="802" y="-1" x="-1"/>
 </g>
 <g>
  <title>Layer 1</title>
  <path stroke="null" id="svg_1" d="m0,214.33336l20.01389,-23.66667c20.01389,-24.11111 60.04166,-70.77778 100.06944,-88.8889c40.02778,-17.44445 80.05555,-6.33333 120.08333,5.88889c40.02778,12.22222 80.05555,23.33333 120.08333,41.44445c40.02778,17.44445 80.05555,41.88889 120.08333,47.44445c40.02778,5.55556 80.05555,-5.55556 120.08333,-11.88889c40.02778,-5.88889 80.05555,-5.88889 120.08333,-11.77778c40.02778,-6.33333 80.05555,-17.44445 120.08333,-6c40.02778,11.88889 80.05555,47.44445 120.08333,77.11112c40.02778,29.22222 80.05555,53.66667 120.08333,29.55556c40.02778,-23.66667 80.05555,-94.77778 120.08333,-106.66667c40.02778,-11.44445 80.05555,35.22222 120.08333,17.77778c40.02778,-18.11111 80.05555,-100.33334 100.06944,-142.22223l20.01389,-41.44445l0,320.00002l-20.01389,0c-20.01389,0 -60.04166,0 -100.06944,0c-40.02778,0 -80.05555,0 -120.08333,0c-40.02778,0 -80.05555,0 -120.08333,0c-40.02778,0 -80.05555,0 -120.08333,0c-40.02778,0 -80.05555,0 -120.08333,0c-40.02778,0 -80.05555,0 -120.08333,0c-40.02778,0 -80.05555,0 -120.08333,0c-40.02778,0 -80.05555,0 -120.08333,0c-40.02778,0 -80.05555,0 -120.08333,0c-40.02778,0 -80.05555,0 -120.08333,0c-40.02778,0 -80.05555,0 -120.08333,0c-40.02778,0 -80.05555,0 -100.06944,0l-20.01389,0l0,-106.66667z" fill="url(#svg_10)"/>
 </g>
</svg>