<?xml version="1.0" standalone="no"?>
<svg xmlns="http://www.w3.org/2000/svg" viewBox="0 0 1440 320" width="1140" height="342">
    <path fill="#8B308D" fill-opacity="1" d="M0,96L20,117.3C40,139,80,181,120,197.3C160,213,200,203,240,192C280,181,320,171,360,154.7C400,139,440,117,480,112C520,107,560,117,600,122.7C640,128,680,128,720,133.3C760,139,800,149,840,138.7C880,128,920,96,960,69.3C1000,43,1040,21,1080,42.7C1120,64,1160,128,1200,138.7C1240,149,1280,107,1320,122.7C1360,139,1400,213,1420,250.7L1440,288L1440,320L1420,320C1400,320,1360,320,1320,320C1280,320,1240,320,1200,320C1160,320,1120,320,1080,320C1040,320,1000,320,960,320C920,320,880,320,840,320C800,320,760,320,720,320C680,320,640,320,600,320C560,320,520,320,480,320C440,320,400,320,360,320C320,320,280,320,240,320C200,320,160,320,120,320C80,320,40,320,20,320L0,320Z"></path>
</svg>