<?xml version="1.0" standalone="no"?>
<svg xmlns="http://www.w3.org/2000/svg" viewBox="0 0 1440 320" width="1140" height="342">
    <path fill="#8B308D" fill-opacity="1" d="M0,96L20,117.3C40,139,80,181,120,197.3C160,213,200,203,240,192C280,181,320,171,360,154.7C400,139,440,117,480,112C520,107,560,117,600,122.7C640,128,680,128,720,133.3C760,139,800,149,840,138.7C880,128,920,96,960,69.3C1000,43,1040,21,1080,42.7C1120,64,1160,128,1200,138.7C1240,149,1280,107,1320,122.7C1360,139,1400,213,1420,250.7L1440,288L1440,0L1420,0C1400,0,1360,0,1320,0C1280,0,1240,0,1200,0C1160,0,1120,0,1080,0C1040,0,1000,0,960,0C920,0,880,0,840,0C800,0,760,0,720,0C680,0,640,0,600,0C560,0,520,0,480,0C440,0,400,0,360,0C320,0,280,0,240,0C200,0,160,0,120,0C80,0,40,0,20,0L0,0Z"></path>
</svg>